<svg xmlns="http://www.w3.org/2000/svg" xmlns:xlink="http://www.w3.org/1999/xlink" width="1318" zoomAndPan="magnify" viewBox="0 0 988.5 98.999996" height="132" preserveAspectRatio="xMidYMid meet" version="1.0"><defs><g/><clipPath id="65e29d39cc"><rect x="0" width="445" y="0" height="28"/></clipPath></defs><g fill="#ffffff" fill-opacity="1"><g transform="translate(282.423706, 60.876525)"><g><path d="M 49.078125 -19.25 L 49.078125 -39.21875 C 49.078125 -40.9375 48.28125 -41.796875 46.6875 -41.796875 L 17.71875 -41.796875 L 17.71875 -19.25 Z M 3.640625 -48.875 L 45.765625 -48.875 C 46.515625 -48.875 47.085938 -48.796875 47.484375 -48.640625 C 47.878906 -48.492188 48.34375 -48.285156 48.875 -48.015625 L 50.0625 -47.421875 L 63.171875 -39.890625 L 63.171875 3.3125 L 49.078125 3.3125 L 49.078125 -12.171875 L 17.71875 -12.171875 L 17.71875 3.3125 L 3.640625 3.3125 Z M 3.640625 -48.875 "/></g></g></g><g fill="#ffffff" fill-opacity="1"><g transform="translate(402.130527, 60.876525)"><g><path d="M 17.46875 -19.25 L 46.890625 -19.25 C 48.484375 -19.25 49.28125 -20.085938 49.28125 -21.765625 L 49.28125 -39.21875 C 49.28125 -40.9375 48.484375 -41.796875 46.890625 -41.796875 L 17.46875 -41.796875 Z M 63.359375 -39.890625 L 63.359375 -19.90625 C 63.316406 -18.320312 62.882812 -16.941406 62.0625 -15.765625 C 61.25 -14.597656 60.210938 -13.707031 58.953125 -13.09375 C 57.703125 -12.476562 56.394531 -12.171875 55.03125 -12.171875 L 17.46875 -12.171875 L 17.46875 3.3125 L 3.375 3.3125 L 3.375 -48.875 L 45.96875 -48.875 C 46.71875 -48.875 47.289062 -48.796875 47.6875 -48.640625 C 48.082031 -48.492188 48.546875 -48.285156 49.078125 -48.015625 L 50.265625 -47.421875 Z M 63.359375 -39.890625 "/></g></g></g><g fill="#ffffff" fill-opacity="1"><g transform="translate(521.837349, 60.876525)"><g><path d="M 19.84375 -3.765625 L 62.109375 -3.765625 L 62.109375 3.3125 L 20.765625 3.3125 C 20.054688 3.3125 19.492188 3.234375 19.078125 3.078125 C 18.660156 2.921875 18.207031 2.710938 17.71875 2.453125 C 17.550781 2.359375 17.351562 2.253906 17.125 2.140625 C 16.90625 2.035156 16.6875 1.941406 16.46875 1.859375 L 3.375 -5.6875 L 3.375 -44.453125 C 3.457031 -46.171875 3.960938 -47.347656 4.890625 -47.984375 C 5.816406 -48.617188 6.988281 -48.914062 8.40625 -48.875 L 61.375 -48.875 L 61.375 -41.796875 L 19.84375 -41.796875 C 18.257812 -41.796875 17.46875 -40.9375 17.46875 -39.21875 L 17.46875 -26.328125 L 57.28125 -26.328125 L 57.28125 -19.25 L 17.46875 -19.25 L 17.46875 -6.34375 C 17.46875 -4.625 18.257812 -3.765625 19.84375 -3.765625 Z M 19.84375 -3.765625 "/></g></g></g><g fill="#ffffff" fill-opacity="1"><g transform="translate(640.221548, 60.876525)"><g><path d="M 64.484375 -48.875 L 40.34375 -22.421875 L 63.828125 3.3125 L 50.265625 3.3125 L 33.59375 -15.015625 L 16.859375 3.3125 L 0.65625 3.3125 L 25.46875 -23.875 L 2.640625 -48.875 L 16.203125 -48.875 L 32.28125 -31.28125 L 48.28125 -48.875 Z M 64.484375 -48.875 "/></g></g></g><g transform="matrix(1, 0, 0, 1, 286, 69)"><g clip-path="url(#65e29d39cc)"><g fill="#ffffff" fill-opacity="1"><g transform="translate(0.855517, 22.178435)"><g><path d="M 7.4375 -1.46875 L 24.859375 -1.46875 L 24.859375 1.28125 L 7.796875 1.28125 C 7.523438 1.28125 7.304688 1.25 7.140625 1.1875 C 6.984375 1.132812 6.8125 1.054688 6.625 0.953125 C 6.550781 0.910156 6.472656 0.867188 6.390625 0.828125 C 6.304688 0.785156 6.21875 0.75 6.125 0.71875 L 1.046875 -2.203125 L 1.046875 -17.234375 C 1.085938 -17.898438 1.285156 -18.359375 1.640625 -18.609375 C 2.003906 -18.859375 2.457031 -18.972656 3 -18.953125 L 24.578125 -18.953125 L 24.578125 -16.21875 L 7.4375 -16.21875 C 6.820312 -16.21875 6.515625 -15.882812 6.515625 -15.21875 L 6.515625 -2.46875 C 6.515625 -1.800781 6.820312 -1.46875 7.4375 -1.46875 Z M 7.4375 -1.46875 "/></g></g></g><g fill="#ffffff" fill-opacity="1"><g transform="translate(47.297888, 22.178435)"><g><path d="M 6.765625 -15.21875 L 6.765625 -2.46875 C 6.765625 -1.800781 7.078125 -1.46875 7.703125 -1.46875 L 19.21875 -1.46875 C 19.832031 -1.46875 20.140625 -1.789062 20.140625 -2.4375 L 20.140625 -15.21875 C 20.140625 -15.882812 19.832031 -16.21875 19.21875 -16.21875 L 7.703125 -16.21875 C 7.078125 -16.21875 6.765625 -15.882812 6.765625 -15.21875 Z M 22.375 1.28125 L 8.0625 1.28125 C 7.78125 1.28125 7.554688 1.25 7.390625 1.1875 C 7.234375 1.132812 7.0625 1.054688 6.875 0.953125 C 6.800781 0.910156 6.722656 0.867188 6.640625 0.828125 C 6.554688 0.785156 6.472656 0.75 6.390625 0.71875 L 1.3125 -2.203125 L 1.3125 -15.953125 C 1.3125 -16.566406 1.472656 -17.097656 1.796875 -17.546875 C 2.117188 -17.992188 2.523438 -18.335938 3.015625 -18.578125 C 3.515625 -18.828125 4.023438 -18.953125 4.546875 -18.953125 L 22.375 -18.953125 C 22.90625 -18.953125 23.410156 -18.828125 23.890625 -18.578125 C 24.378906 -18.335938 24.785156 -17.992188 25.109375 -17.546875 C 25.441406 -17.097656 25.609375 -16.566406 25.609375 -15.953125 L 25.609375 -1.71875 C 25.609375 -1.101562 25.441406 -0.570312 25.109375 -0.125 C 24.785156 0.3125 24.378906 0.65625 23.890625 0.90625 C 23.410156 1.15625 22.90625 1.28125 22.375 1.28125 Z M 22.375 1.28125 "/></g></g></g><g fill="#ffffff" fill-opacity="1"><g transform="translate(94.766502, 22.178435)"><g><path d="M 19.5 -18.390625 L 24.578125 -15.46875 L 24.578125 1.28125 L 19.109375 1.28125 L 19.109375 -15.21875 C 19.109375 -15.882812 18.800781 -16.21875 18.1875 -16.21875 L 6.765625 -16.21875 L 6.765625 1.28125 L 1.3125 1.28125 L 1.3125 -18.953125 L 17.828125 -18.953125 C 18.117188 -18.953125 18.34375 -18.921875 18.5 -18.859375 C 18.65625 -18.804688 18.832031 -18.726562 19.03125 -18.625 Z M 19.5 -18.390625 "/></g></g></g><g fill="#ffffff" fill-opacity="1"><g transform="translate(141.208873, 22.178435)"><g><path d="M 24.375 -7.203125 L 24.375 -1.71875 C 24.351562 -1.101562 24.1875 -0.566406 23.875 -0.109375 C 23.5625 0.335938 23.160156 0.679688 22.671875 0.921875 C 22.179688 1.160156 21.671875 1.28125 21.140625 1.28125 L 1.15625 1.28125 L 1.15625 -1.46875 L 17.984375 -1.46875 C 18.597656 -1.46875 18.90625 -1.800781 18.90625 -2.46875 L 18.90625 -6.46875 C 18.90625 -7.132812 18.597656 -7.46875 17.984375 -7.46875 L 4.765625 -7.46875 C 4.242188 -7.46875 3.738281 -7.585938 3.25 -7.828125 C 2.757812 -8.066406 2.359375 -8.410156 2.046875 -8.859375 C 1.742188 -9.316406 1.578125 -9.851562 1.546875 -10.46875 L 1.546875 -15.953125 C 1.578125 -16.585938 1.742188 -17.125 2.046875 -17.5625 C 2.359375 -18.007812 2.757812 -18.351562 3.25 -18.59375 C 3.738281 -18.832031 4.242188 -18.953125 4.765625 -18.953125 L 23.609375 -18.953125 L 23.609375 -16.21875 L 7.921875 -16.21875 C 7.304688 -16.21875 7 -15.890625 7 -15.234375 L 7 -11.21875 C 7 -10.550781 7.304688 -10.21875 7.921875 -10.21875 L 21.140625 -10.21875 C 21.671875 -10.21875 22.179688 -10.097656 22.671875 -9.859375 C 23.160156 -9.617188 23.5625 -9.273438 23.875 -8.828125 C 24.1875 -8.378906 24.351562 -7.835938 24.375 -7.203125 Z M 24.375 -7.203125 "/></g></g></g><g fill="#ffffff" fill-opacity="1"><g transform="translate(187.394681, 22.178435)"><g><path d="M 18.890625 -18.953125 L 24.34375 -18.953125 L 24.34375 1.28125 L 8.0625 1.28125 C 7.78125 1.28125 7.554688 1.25 7.390625 1.1875 C 7.234375 1.132812 7.0625 1.054688 6.875 0.953125 C 6.800781 0.910156 6.722656 0.867188 6.640625 0.828125 C 6.554688 0.785156 6.472656 0.75 6.390625 0.71875 L 1.3125 -2.203125 L 1.3125 -18.953125 L 6.765625 -18.953125 L 6.765625 -2.46875 C 6.765625 -1.800781 7.078125 -1.46875 7.703125 -1.46875 L 18.890625 -1.46875 Z M 18.890625 -18.953125 "/></g></g></g><g fill="#ffffff" fill-opacity="1"><g transform="translate(233.5805, 22.178435)"><g><path d="M 0.796875 -18.953125 L 6.265625 -18.953125 L 6.265625 -2.46875 C 6.265625 -1.800781 6.570312 -1.46875 7.1875 -1.46875 L 21.015625 -1.46875 L 21.015625 1.28125 L 7.546875 1.28125 C 7.265625 1.28125 7.039062 1.25 6.875 1.1875 C 6.71875 1.132812 6.546875 1.054688 6.359375 0.953125 C 6.296875 0.910156 6.21875 0.867188 6.125 0.828125 C 6.039062 0.785156 5.957031 0.75 5.875 0.71875 L 0.796875 -2.203125 Z M 0.796875 -18.953125 "/></g></g></g><g fill="#ffffff" fill-opacity="1"><g transform="translate(275.917879, 22.178435)"><g><path d="M 24.65625 -18.953125 L 24.65625 -16.21875 L 15.546875 -16.21875 L 15.546875 1.28125 L 10.078125 1.28125 L 10.078125 -16.21875 L 0.96875 -16.21875 L 0.96875 -18.953125 Z M 24.65625 -18.953125 "/></g></g></g><g fill="#ffffff" fill-opacity="1"><g transform="translate(322.103698, 22.178435)"><g><path d="M 7.203125 -18.953125 L 7.203125 1.28125 L 1.75 1.28125 L 1.75 -18.953125 Z M 7.203125 -18.953125 "/></g></g></g><g fill="#ffffff" fill-opacity="1"><g transform="translate(351.613018, 22.178435)"><g><path d="M 19.5 -18.390625 L 24.578125 -15.46875 L 24.578125 1.28125 L 19.109375 1.28125 L 19.109375 -15.21875 C 19.109375 -15.882812 18.800781 -16.21875 18.1875 -16.21875 L 6.765625 -16.21875 L 6.765625 1.28125 L 1.3125 1.28125 L 1.3125 -18.953125 L 17.828125 -18.953125 C 18.117188 -18.953125 18.34375 -18.921875 18.5 -18.859375 C 18.65625 -18.804688 18.832031 -18.726562 19.03125 -18.625 Z M 19.5 -18.390625 "/></g></g></g><g fill="#ffffff" fill-opacity="1"><g transform="translate(398.055411, 22.178435)"><g><path d="M 21.25 1.28125 L 8.1875 1.28125 C 7.914062 1.28125 7.695312 1.25 7.53125 1.1875 C 7.363281 1.132812 7.1875 1.054688 7 0.953125 C 6.9375 0.910156 6.859375 0.867188 6.765625 0.828125 C 6.679688 0.785156 6.597656 0.75 6.515625 0.71875 L 1.4375 -2.203125 L 1.4375 -17.234375 C 1.46875 -17.898438 1.660156 -18.359375 2.015625 -18.609375 C 2.378906 -18.859375 2.835938 -18.972656 3.390625 -18.953125 L 24.1875 -18.953125 L 24.1875 -16.21875 L 7.828125 -16.21875 C 7.210938 -16.21875 6.90625 -15.882812 6.90625 -15.21875 L 6.90625 -2.46875 C 6.90625 -1.800781 7.210938 -1.46875 7.828125 -1.46875 L 18.09375 -1.46875 C 18.707031 -1.46875 19.015625 -1.789062 19.015625 -2.4375 L 19.015625 -10.21875 L 24.46875 -10.21875 L 24.46875 -1.71875 C 24.457031 -1.101562 24.289062 -0.566406 23.96875 -0.109375 C 23.65625 0.335938 23.253906 0.679688 22.765625 0.921875 C 22.273438 1.160156 21.769531 1.28125 21.25 1.28125 Z M 21.25 1.28125 "/></g></g></g></g></g></svg>